<svg width="500" height="500" viewBox="0 0 500 500" fill="none" xmlns="http://www.w3.org/2000/svg">
<g clip-path="url(#clip0_1_3)">
<rect x="0.25" y="0.25" width="499.5" height="499.5" stroke="black" stroke-opacity="0.4" stroke-width="0.5"/>
<line y1="9.75" x2="500" y2="9.75" stroke="black" stroke-opacity="0.4" stroke-width="0.5"/>
<line y1="97.75" x2="500" y2="97.75" stroke="black" stroke-opacity="0.4" stroke-width="0.5"/>
<line y1="107.75" x2="500" y2="107.75" stroke="black" stroke-opacity="0.4" stroke-width="0.5"/>
<line y1="195.75" x2="500" y2="195.75" stroke="black" stroke-opacity="0.4" stroke-width="0.5"/>
<line y1="205.75" x2="500" y2="205.75" stroke="black" stroke-opacity="0.4" stroke-width="0.5"/>
<line y1="293.75" x2="500" y2="293.75" stroke="black" stroke-opacity="0.4" stroke-width="0.5"/>
<line y1="303.75" x2="500" y2="303.75" stroke="black" stroke-opacity="0.4" stroke-width="0.5"/>
<line y1="391.75" x2="500" y2="391.75" stroke="black" stroke-opacity="0.4" stroke-width="0.5"/>
<line y1="401.75" x2="500" y2="401.75" stroke="black" stroke-opacity="0.4" stroke-width="0.5"/>
<line y1="489.75" x2="500" y2="489.75" stroke="black" stroke-opacity="0.4" stroke-width="0.5"/>
<line x1="489.75" y1="500" x2="489.75" y2="1.09279e-08" stroke="black" stroke-opacity="0.4" stroke-width="0.5"/>
<line x1="401.75" y1="500" x2="401.75" y2="1.09279e-08" stroke="black" stroke-opacity="0.4" stroke-width="0.5"/>
<line x1="391.75" y1="500" x2="391.75" y2="1.09279e-08" stroke="black" stroke-opacity="0.4" stroke-width="0.5"/>
<line x1="303.75" y1="500" x2="303.75" y2="1.09279e-08" stroke="black" stroke-opacity="0.4" stroke-width="0.5"/>
<line x1="293.75" y1="500" x2="293.75" y2="1.09279e-08" stroke="black" stroke-opacity="0.4" stroke-width="0.5"/>
<line x1="205.75" y1="500" x2="205.75" y2="1.09279e-08" stroke="black" stroke-opacity="0.4" stroke-width="0.5"/>
<line x1="195.75" y1="500" x2="195.75" y2="1.09279e-08" stroke="black" stroke-opacity="0.4" stroke-width="0.5"/>
<line x1="107.75" y1="500" x2="107.75" y2="1.09279e-08" stroke="black" stroke-opacity="0.4" stroke-width="0.5"/>
<line x1="97.75" y1="500" x2="97.75" y2="1.09279e-08" stroke="black" stroke-opacity="0.4" stroke-width="0.5"/>
<line x1="9.75003" y1="500" x2="9.75001" y2="1.09279e-08" stroke="black" stroke-opacity="0.4" stroke-width="0.5"/>
<path d="M74.7 72.4C71.8 89.6 60.8 99.6 43.8 99.6C22.8 99.6 9.6 83.7 9.6 62.6C9.6 41.5 22.8 25.4 43.8 25.4C60.1 25.4 71.3 35 74.4 51.4L58.6 52.1C56.8 43.2 51.3 38.2 43.5 38.2C31 38.2 25.2 48.7 25.2 62.6C25.2 76.4 31.1 86.8 43.5 86.8C51.8 86.8 57.2 81.4 58.8 71.8L74.7 72.4ZM109.256 99.2C92.8562 99.2 82.0563 88.3 82.0563 71.5C82.0563 54.7 92.8562 43.8 109.256 43.8C125.656 43.8 136.456 54.7 136.456 71.5C136.456 88.3 125.656 99.2 109.256 99.2ZM97.4563 71.5C97.4563 81.8 101.756 87.7 109.256 87.7C116.756 87.7 120.956 81.8 120.956 71.5C120.956 61.2 116.756 55.3 109.256 55.3C101.756 55.3 97.4563 61.2 97.4563 71.5ZM146.084 45H159.584L159.884 53.4C162.584 47.3 167.884 43.8 174.684 43.8C182.084 43.8 187.384 47.8 189.784 54.7C192.484 47.5 197.984 43.8 205.284 43.8C215.984 43.8 222.884 50.7 222.884 63.9V98H207.884V68.9C207.884 60.1 205.384 55.7 200.384 55.7C194.184 55.7 191.084 60.3 191.084 68.9V98H177.784V68.9C177.784 60.1 175.384 55.7 170.284 55.7C164.184 55.7 161.084 60.3 161.084 68.9V98H146.084V45ZM236.123 45H251.123V98H236.123V45ZM235.823 38.1V27H251.323V38.1H235.823ZM262.979 45H276.479L276.779 53.4C279.679 46.4 285.579 43.8 292.679 43.8C304.179 43.8 310.879 51.6 310.879 63.9V98H295.879V68.9C295.879 60.4 293.979 55.7 287.679 55.7C281.379 55.7 277.979 60.4 277.979 68.9V98H262.979V45ZM343.042 95.6C329.342 95.6 320.142 85.4 320.142 70.3C320.142 54.5 329.242 43.8 343.042 43.8C349.842 43.8 355.642 47.3 358.442 53.2V45H373.242V91.6C373.242 105.7 362.342 114.1 346.742 114.1C334.342 114.1 324.742 108.3 321.742 99.2L337.042 98.1C338.342 101.6 342.042 103.8 346.942 103.8C354.042 103.8 358.142 100.3 358.142 93.1V87.4C355.542 92.3 349.642 95.6 343.042 95.6ZM335.542 70.2C335.542 79.4 340.242 85.3 347.142 85.3C354.142 85.3 358.642 79.4 358.642 70.2C358.842 60.9 354.242 55.1 347.142 55.1C340.042 55.1 335.542 60.9 335.542 70.2Z" fill="#0D0D0D"/>
<path d="M25.9 171.9C27.2 179.5 32.6 184.5 41.5 184.5C48.3 184.5 52.9 181.8 52.8 176.6C52.7 171.4 48.3 168.4 37.2 165.7C21.8 162 11.9 155.8 11.9 144.4C11.9 131.5 22.7 123.4 38.9 123.4C54.7 123.4 65.5 133.1 67.2 147.4L52 148.2C51.2 140.7 46 136 38.5 136C31.9 136 27.2 139.4 27.5 144.6C27.7 150.6 34.7 152.6 42.3 154.5C58.2 158 68.3 164.8 68.3 176.1C68.3 189.6 56.4 197.2 41.1 197.2C23.8 197.2 11.6 187.6 10.6 172.6L25.9 171.9ZM104.471 197.2C88.0711 197.2 77.2711 186.3 77.2711 169.5C77.2711 152.7 88.0711 141.8 104.471 141.8C120.871 141.8 131.671 152.7 131.671 169.5C131.671 186.3 120.871 197.2 104.471 197.2ZM92.6711 169.5C92.6711 179.8 96.9711 185.7 104.471 185.7C111.971 185.7 116.171 179.8 116.171 169.5C116.171 159.2 111.971 153.3 104.471 153.3C96.9711 153.3 92.6711 159.2 92.6711 169.5ZM166.678 197.2C150.278 197.2 139.478 186.3 139.478 169.5C139.478 152.7 150.278 141.8 166.678 141.8C183.078 141.8 193.878 152.7 193.878 169.5C193.878 186.3 183.078 197.2 166.678 197.2ZM154.878 169.5C154.878 179.8 159.178 185.7 166.678 185.7C174.178 185.7 178.378 179.8 178.378 169.5C178.378 159.2 174.178 153.3 166.678 153.3C159.178 153.3 154.878 159.2 154.878 169.5ZM203.506 143H217.006L217.306 151.4C220.206 144.4 226.106 141.8 233.206 141.8C244.706 141.8 251.406 149.6 251.406 161.9V196H236.406V166.9C236.406 158.4 234.506 153.7 228.206 153.7C221.906 153.7 218.506 158.4 218.506 166.9V196H203.506V143Z" fill="#0D0D0D"/>
</g>
<defs>
<clipPath id="clip0_1_3">
<rect width="500" height="500" fill="white"/>
</clipPath>
</defs>
</svg>
